<svg width="269" height="180" viewBox="0 0 269 180" fill="none" xmlns="http://www.w3.org/2000/svg">
<g clip-path="url(#clip0_0_1)">
<rect x="1.16699" y="0.413086" width="268" height="180" rx="8" fill="url(#paint0_linear_0_1)" fill-opacity="0.1"/>
<g filter="url(#filter0_d_0_1)">
<rect x="36.0498" y="62.8057" width="198.508" height="134.554" rx="9.96694" fill="white"/>
<rect x="36.4651" y="63.221" width="197.678" height="133.723" rx="9.55165" stroke="#F28100" stroke-opacity="0.2" stroke-width="0.830579"/>
<circle cx="46.8482" cy="78.587" r="2.49174" fill="#F3F3F3"/>
<circle cx="55.1538" cy="78.587" r="2.49174" fill="#F3F3F3"/>
<circle cx="63.4595" cy="78.587" r="2.49174" fill="#F3F3F3"/>
<rect x="74.2573" y="70.2808" width="141.198" height="16.6116" rx="8.30579" fill="#F9F9F9"/>
<rect x="44.3564" y="101.843" width="11.6281" height="11.6281" rx="3.32231" fill="#F28100" fill-opacity="0.5"/>
<rect x="44.3564" y="118.455" width="11.6281" height="11.6281" rx="3.32231" fill="#F3F3F3"/>
<rect x="44.3564" y="135.066" width="11.6281" height="11.6281" rx="3.32231" fill="#F3F3F3"/>
<rect x="44.3564" y="151.678" width="11.6281" height="11.6281" rx="3.32231" fill="#F3F3F3"/>
<rect x="44.3564" y="168.289" width="11.6281" height="11.6281" rx="3.32231" fill="#F3F3F3"/>
<rect x="63.46" y="96.8594" width="161.963" height="89.7025" rx="4.98347" fill="url(#paint1_linear_0_1)" fill-opacity="0.5"/>
<path d="M95.769 80.9424V73.8659H96.8255V76.4074C97.1046 75.7994 97.6827 75.5204 98.3803 75.5204C99.5365 75.5204 100.164 76.3476 100.164 77.5337V80.9424H99.1079V77.8128C99.1079 76.8659 98.779 76.4074 98.1013 76.4074C97.3238 76.4074 96.8255 76.9058 96.8255 77.8327V80.9424H95.769ZM102.991 80.9424C101.984 80.9424 101.515 80.5038 101.515 79.5071V76.5071H100.708V75.64H101.515V74.3941H102.572V75.64H104.755V74.3941H105.811V75.64H107.217V76.5071H105.811V79.4274C105.811 79.9258 106.02 80.0753 106.459 80.0753H107.217V80.9424H106.23C105.223 80.9424 104.755 80.5038 104.755 79.5071V76.5071H102.572V79.4274C102.572 79.9258 102.781 80.0753 103.22 80.0753H103.977V80.9424H102.991ZM107.956 82.4374V75.64H108.953L108.973 76.4473C109.282 75.8393 109.87 75.5204 110.577 75.5204C112.132 75.5204 112.85 76.7961 112.85 78.2912C112.85 79.7862 112.122 81.062 110.577 81.062C109.89 81.062 109.291 80.743 109.012 80.2248V82.4374H107.956ZM110.388 80.145C111.235 80.145 111.753 79.4573 111.753 78.2912C111.753 77.125 111.235 76.4373 110.388 76.4373C109.541 76.4373 109.012 77.0652 109.012 78.2912C109.012 79.5171 109.531 80.145 110.388 80.145ZM115.665 81.062C114.17 81.062 113.363 80.3145 113.283 79.2679L114.379 79.2181C114.469 79.8062 114.848 80.1749 115.665 80.1749C116.323 80.1749 116.741 79.9756 116.741 79.5071C116.741 79.1184 116.542 78.949 115.476 78.7696C113.901 78.4905 113.413 78.032 113.413 77.1649C113.413 76.1981 114.16 75.5204 115.535 75.5204C116.891 75.5204 117.609 76.2978 117.758 77.2646L116.672 77.3244C116.572 76.7762 116.183 76.4074 115.526 76.4074C114.838 76.4074 114.509 76.7064 114.509 77.125C114.509 77.5935 114.828 77.7829 115.695 77.9224C117.339 78.1915 117.838 78.6301 117.838 79.4972C117.838 80.4939 116.931 81.062 115.665 81.062ZM118.734 80.9424V79.6865H120.03V80.9424H118.734ZM118.734 77.145V75.8891H120.03V77.145H118.734ZM120.855 82.0387L123.805 73.4672H124.821L121.881 82.0387H120.855ZM124.583 82.0387L127.533 73.4672H128.55L125.609 82.0387H124.583ZM130.497 81.062C129.4 81.062 128.683 80.5337 128.683 79.6168C128.683 78.7098 129.221 78.2214 130.377 77.9922L132.201 77.6433C132.201 76.826 131.822 76.4174 131.065 76.4174C130.387 76.4174 130.008 76.7264 129.869 77.3044L128.772 77.2347C128.972 76.1782 129.799 75.5204 131.065 75.5204C132.5 75.5204 133.257 76.3277 133.257 77.7031V79.7663C133.257 80.0254 133.347 80.1052 133.547 80.1052H133.736V80.9424C133.666 80.9623 133.497 80.9723 133.347 80.9723C132.739 80.9723 132.38 80.743 132.291 80.1251C132.022 80.6832 131.324 81.062 130.497 81.062ZM130.676 80.2248C131.623 80.2248 132.201 79.6267 132.201 78.7796V78.4407L130.656 78.7397C130.018 78.8593 129.779 79.1085 129.779 79.5171C129.779 79.9756 130.108 80.2248 130.676 80.2248ZM134.375 82.4374V75.64H135.371L135.391 76.4473C135.7 75.8393 136.288 75.5204 136.996 75.5204C138.551 75.5204 139.268 76.7961 139.268 78.2912C139.268 79.7862 138.541 81.062 136.996 81.062C136.308 81.062 135.71 80.743 135.431 80.2248V82.4374H134.375ZM136.806 80.145C137.654 80.145 138.172 79.4573 138.172 78.2912C138.172 77.125 137.654 76.4373 136.806 76.4373C135.959 76.4373 135.431 77.0652 135.431 78.2912C135.431 79.5171 135.949 80.145 136.806 80.145ZM140.011 82.4374V75.64H141.007L141.027 76.4473C141.336 75.8393 141.924 75.5204 142.632 75.5204C144.187 75.5204 144.904 76.7961 144.904 78.2912C144.904 79.7862 144.177 81.062 142.632 81.062C141.944 81.062 141.346 80.743 141.067 80.2248V82.4374H140.011ZM142.442 80.145C143.29 80.145 143.808 79.4573 143.808 78.2912C143.808 77.125 143.29 76.4373 142.442 76.4373C141.595 76.4373 141.067 77.0652 141.067 78.2912C141.067 79.5171 141.585 80.145 142.442 80.145ZM145.396 80.9424V79.6865H146.692V80.9424H145.396ZM148.982 81.062C147.885 81.062 147.168 80.5337 147.168 79.6168C147.168 78.7098 147.706 78.2214 148.862 77.9922L150.686 77.6433C150.686 76.826 150.307 76.4174 149.55 76.4174C148.872 76.4174 148.493 76.7264 148.354 77.3044L147.258 77.2347C147.457 76.1782 148.284 75.5204 149.55 75.5204C150.985 75.5204 151.743 76.3277 151.743 77.7031V79.7663C151.743 80.0254 151.832 80.1052 152.032 80.1052H152.221V80.9424C152.151 80.9623 151.982 80.9723 151.832 80.9723C151.224 80.9723 150.866 80.743 150.776 80.1251C150.507 80.6832 149.809 81.062 148.982 81.062ZM149.161 80.2248C150.108 80.2248 150.686 79.6267 150.686 78.7796V78.4407L149.141 78.7397C148.503 78.8593 148.264 79.1085 148.264 79.5171C148.264 79.9756 148.593 80.2248 149.161 80.2248ZM152.86 82.4374V75.64H153.856L153.876 76.4473C154.185 75.8393 154.773 75.5204 155.481 75.5204C157.036 75.5204 157.753 76.7961 157.753 78.2912C157.753 79.7862 157.026 81.062 155.481 81.062C154.793 81.062 154.195 80.743 153.916 80.2248V82.4374H152.86ZM155.292 80.145C156.139 80.145 156.657 79.4573 156.657 78.2912C156.657 77.125 156.139 76.4373 155.292 76.4373C154.444 76.4373 153.916 77.0652 153.916 78.2912C153.916 79.5171 154.435 80.145 155.292 80.145ZM160.708 81.062C159.183 81.062 158.187 79.9756 158.187 78.2912C158.187 76.6068 159.183 75.5204 160.708 75.5204C162.223 75.5204 163.22 76.6068 163.22 78.2912C163.22 79.9756 162.223 81.062 160.708 81.062ZM160.708 80.145C161.605 80.145 162.124 79.4573 162.124 78.2912C162.124 77.125 161.605 76.4373 160.708 76.4373C159.811 76.4373 159.283 77.125 159.283 78.2912C159.283 79.4573 159.811 80.145 160.708 80.145ZM165.123 80.9424C164.425 80.9424 163.957 80.6035 163.957 79.8161L163.966 73.8659H165.023V79.7164C165.023 79.9656 165.143 80.0753 165.382 80.0753H165.81V80.9424H165.123ZM167.605 80.9424C166.907 80.9424 166.439 80.6035 166.439 79.8161L166.449 73.8659H167.505V79.7164C167.505 79.9656 167.625 80.0753 167.864 80.0753H168.293V80.9424H167.605ZM171.144 81.062C169.619 81.062 168.622 79.9756 168.622 78.2912C168.622 76.6068 169.619 75.5204 171.144 75.5204C172.659 75.5204 173.655 76.6068 173.655 78.2912C173.655 79.9756 172.659 81.062 171.144 81.062ZM171.144 80.145C172.041 80.145 172.559 79.4573 172.559 78.2912C172.559 77.125 172.041 76.4373 171.144 76.4373C170.247 76.4373 169.718 77.125 169.718 78.2912C169.718 79.4573 170.247 80.145 171.144 80.145ZM174.132 80.9424V79.6865H175.427V80.9424H174.132ZM176.212 80.9424V75.64H177.269V80.9424H176.212ZM176.192 74.8725V73.816H177.299V74.8725H176.192ZM180.567 81.062C179.042 81.062 178.045 79.9756 178.045 78.2912C178.045 76.6068 179.042 75.5204 180.567 75.5204C182.082 75.5204 183.078 76.6068 183.078 78.2912C183.078 79.9756 182.082 81.062 180.567 81.062ZM180.567 80.145C181.464 80.145 181.982 79.4573 181.982 78.2912C181.982 77.125 181.464 76.4373 180.567 76.4373C179.67 76.4373 179.141 77.125 179.141 78.2912C179.141 79.4573 179.67 80.145 180.567 80.145ZM183.387 82.0387L186.338 73.4672H187.354L184.414 82.0387H183.387ZM187.215 80.9424V79.6865H188.51V80.9424H187.215ZM188.987 80.9424V79.6865H190.282V80.9424H188.987ZM190.758 80.9424V79.6865H192.054V80.9424H190.758ZM192.53 80.9424V79.6865H193.826V80.9424H192.53Z" fill="#A3A3A3"/>
<a href="https://app.apollo.io/#/people">
<rect fill="black" fill-opacity="0" y="-0.179503" width="99.243" height="12.359"/>
</a>
</g>
<rect x="247.849" y="-11.1157" width="198.508" height="134.554" rx="9.96694" fill="url(#paint2_linear_0_1)" fill-opacity="0.07"/>
<rect x="248.264" y="-10.7004" width="197.678" height="133.723" rx="9.55165" stroke="url(#paint3_linear_0_1)" stroke-opacity="0.2" stroke-width="0.830579"/>
<rect x="-175.747" y="-11.1157" width="198.508" height="134.554" rx="9.96694" fill="url(#paint4_linear_0_1)" fill-opacity="0.07"/>
<rect x="-175.332" y="-10.7004" width="197.678" height="133.723" rx="9.55165" stroke="url(#paint5_linear_0_1)" stroke-opacity="0.2" stroke-width="0.830579"/>
<rect x="36.0498" y="-85.0371" width="198.508" height="134.554" rx="9.96694" fill="url(#paint6_linear_0_1)" fill-opacity="0.07"/>
<rect x="36.4651" y="-84.6218" width="197.678" height="133.723" rx="9.55165" stroke="url(#paint7_linear_0_1)" stroke-opacity="0.2" stroke-width="0.830579"/>
<rect x="247.849" y="136.727" width="198.508" height="134.554" rx="9.96694" fill="url(#paint8_linear_0_1)" fill-opacity="0.1"/>
<rect x="248.264" y="137.142" width="197.678" height="133.723" rx="9.55165" stroke="url(#paint9_linear_0_1)" stroke-opacity="0.2" stroke-width="0.830579"/>
<rect x="-175.747" y="136.727" width="198.508" height="134.554" rx="9.96694" fill="url(#paint10_linear_0_1)" fill-opacity="0.1"/>
<rect x="-175.332" y="137.142" width="197.678" height="133.723" rx="9.55165" stroke="url(#paint11_linear_0_1)" stroke-opacity="0.2" stroke-width="0.830579"/>
<rect width="268.277" height="149.504" transform="translate(1.16699 32.0825)" fill="url(#paint12_linear_0_1)"/>
</g>
<rect x="1.58228" y="0.828375" width="267.169" height="179.169" rx="7.58471" stroke="url(#paint13_linear_0_1)" stroke-opacity="0.15" stroke-width="0.830579"/>
<defs>
<filter id="filter0_d_0_1" x="16.1159" y="42.8718" width="238.376" height="174.421" filterUnits="userSpaceOnUse" color-interpolation-filters="sRGB">
<feFlood flood-opacity="0" result="BackgroundImageFix"/>
<feColorMatrix in="SourceAlpha" type="matrix" values="0 0 0 0 0 0 0 0 0 0 0 0 0 0 0 0 0 0 127 0" result="hardAlpha"/>
<feOffset/>
<feGaussianBlur stdDeviation="9.96694"/>
<feComposite in2="hardAlpha" operator="out"/>
<feColorMatrix type="matrix" values="0 0 0 0 0.94902 0 0 0 0 0.505882 0 0 0 0 0 0 0 0 0.08 0"/>
<feBlend mode="normal" in2="BackgroundImageFix" result="effect1_dropShadow_0_1"/>
<feBlend mode="normal" in="SourceGraphic" in2="effect1_dropShadow_0_1" result="shape"/>
</filter>
<linearGradient id="paint0_linear_0_1" x1="135.167" y1="0.413086" x2="135.167" y2="168.481" gradientUnits="userSpaceOnUse">
<stop stop-color="#F28100"/>
<stop offset="1" stop-color="#F59E0B"/>
</linearGradient>
<linearGradient id="paint1_linear_0_1" x1="144.441" y1="200.102" x2="144.441" y2="96.8594" gradientUnits="userSpaceOnUse">
<stop stop-color="white"/>
<stop offset="1" stop-color="#F2F2F2"/>
</linearGradient>
<linearGradient id="paint2_linear_0_1" x1="347.103" y1="-11.1157" x2="347.103" y2="123.438" gradientUnits="userSpaceOnUse">
<stop stop-color="#F28100" stop-opacity="0.1"/>
<stop offset="1" stop-color="#F28100"/>
</linearGradient>
<linearGradient id="paint3_linear_0_1" x1="347.103" y1="-11.1157" x2="347.103" y2="123.438" gradientUnits="userSpaceOnUse">
<stop stop-color="#F28100" stop-opacity="0.2"/>
<stop offset="1" stop-color="#F28100" stop-opacity="0.8"/>
</linearGradient>
<linearGradient id="paint4_linear_0_1" x1="-76.4929" y1="-11.1157" x2="-76.4929" y2="123.438" gradientUnits="userSpaceOnUse">
<stop stop-color="#F28100" stop-opacity="0.1"/>
<stop offset="1" stop-color="#F28100"/>
</linearGradient>
<linearGradient id="paint5_linear_0_1" x1="-76.4929" y1="-11.1157" x2="-76.4929" y2="123.438" gradientUnits="userSpaceOnUse">
<stop stop-color="#F28100" stop-opacity="0.2"/>
<stop offset="1" stop-color="#F28100" stop-opacity="0.8"/>
</linearGradient>
<linearGradient id="paint6_linear_0_1" x1="135.304" y1="-85.0371" x2="135.304" y2="49.5166" gradientUnits="userSpaceOnUse">
<stop stop-color="#F28100" stop-opacity="0.1"/>
<stop offset="1" stop-color="#F28100"/>
</linearGradient>
<linearGradient id="paint7_linear_0_1" x1="135.304" y1="-85.0371" x2="135.304" y2="49.5166" gradientUnits="userSpaceOnUse">
<stop stop-color="#F28100" stop-opacity="0.2"/>
<stop offset="1" stop-color="#F28100" stop-opacity="0.8"/>
</linearGradient>
<linearGradient id="paint8_linear_0_1" x1="347.103" y1="136.727" x2="347.103" y2="271.281" gradientUnits="userSpaceOnUse">
<stop stop-color="#F28100"/>
<stop offset="1" stop-color="#F28100" stop-opacity="0.1"/>
</linearGradient>
<linearGradient id="paint9_linear_0_1" x1="347.103" y1="136.727" x2="347.103" y2="271.281" gradientUnits="userSpaceOnUse">
<stop stop-color="#F28100" stop-opacity="0.8"/>
<stop offset="1" stop-color="#F28100" stop-opacity="0.2"/>
</linearGradient>
<linearGradient id="paint10_linear_0_1" x1="-76.4929" y1="136.727" x2="-76.4929" y2="271.281" gradientUnits="userSpaceOnUse">
<stop stop-color="#F28100"/>
<stop offset="1" stop-color="#F28100" stop-opacity="0.1"/>
</linearGradient>
<linearGradient id="paint11_linear_0_1" x1="-76.4929" y1="136.727" x2="-76.4929" y2="271.281" gradientUnits="userSpaceOnUse">
<stop stop-color="#F28100" stop-opacity="0.8"/>
<stop offset="1" stop-color="#F28100" stop-opacity="0.2"/>
</linearGradient>
<linearGradient id="paint12_linear_0_1" x1="134.138" y1="0" x2="134.138" y2="149.504" gradientUnits="userSpaceOnUse">
<stop stop-color="white" stop-opacity="0"/>
<stop offset="1" stop-color="white"/>
</linearGradient>
<linearGradient id="paint13_linear_0_1" x1="135.167" y1="0.413086" x2="135.167" y2="180.413" gradientUnits="userSpaceOnUse">
<stop stop-color="#F28100" stop-opacity="0"/>
<stop offset="1" stop-color="#F28100"/>
</linearGradient>
<clipPath id="clip0_0_1">
<rect x="1.16699" y="0.413086" width="268" height="180" rx="8" fill="white"/>
</clipPath>
</defs>
</svg>
